<svg xmlns="http://www.w3.org/2000/svg" viewBox="0 0 915.2 265.34"><defs><style>.cls-1{fill:#dfdfdf;}</style></defs><title>logo_white</title><g id="Layer_2" data-name="Layer 2"><g id="Layer_1-2" data-name="Layer 1"><path class="cls-1" d="M765.69,225.83c-11.07-.16-10.63-7.07-10.28-14.18,1.67-33.9,5.31-67.42,18.55-99.16a42.37,42.37,0,0,0,1.28-5.14c-5.24,1.4-9.68,2.47-14,3.78q-36,10.81-72,21.74c-9.62,2.92-19.06,6.55-28.84,8.77-9.34,2.11-13.67,8.5-16.65,16.38-2.23,5.89-4.41,12-5.33,18.15-2.39,16.14,7.06,27.11,23.67,28.16,12.8.81,24.71-2.59,35.81-8.66,7.19-3.93,13.92-8.67,21.06-12.71,2.24-1.27,5.11-1.42,7.69-2.09.31,2.62,1,5.28.79,7.84a9.33,9.33,0,0,1-2.65,5.47c-20,18.53-43,28.62-70.59,23.17-17.86-3.53-29.73-14.32-33.36-32.89a15.61,15.61,0,0,0-.87-2.39c-8.75,7.84-16.58,16.41-25.88,22.83-12.48,8.62-26.28,15.32-39.19,23.35-10.31,6.42-17.32,9.68-33,13.68-7.43.52-14.71,2.92-22.14,3.66-6.74.67-12.64-1.84-15.81-8.29-2.14-4.37,1.8-12.55,8.27-17.62,3.37,14.38,3.37,14.38,17.88,10.93.91-.22,1.85-.36,2.75-.6,11.43-3.13,11.27-3.38,12.18-15.16,2.55-33,5.47-66,8.09-98.94.71-8.88.74-17.82,1.33-26.71.36-5.4-2-6.7-7.1-6.64-6.28.09-12.79-.09-18.79-1.69-3.06-.81-5.22-5-7.79-7.64,3-1.78,5.78-4.74,8.91-5.11,6.65-.79,13.46-.24,20.84-.24-.27-3.12-.72-4.94-.51-6.67.29-2.38.38-5.89,1.83-6.76,2.26-1.34,6.29-2.05,8.32-.88,3.45,2,7.17,5.19,8.51,8.73,2,5.41,5.21,7.63,10.54,8.7,20.56,4.12,38.82,13.35,53.14,28.53,7.38,7.82,12.17,18.09,18.12,27.25,1.29,2,2.87,5.78,3.77,5.62a15,15,0,0,0,7.7-4c11.63-11.88,22.15-25,34.72-35.76,10.55-9,23.24-15.63,35.33-22.72,2.59-1.52,7-1.47,9.91-.37,2.22.84,4.27,4.33,4.7,6.92.26,1.53-2.43,4.33-4.41,5.32-18.24,9.14-34.23,21.29-48.59,35.68a5.3,5.3,0,0,0-1.71,3.71c12-3.32,24.11-6.5,36.09-10q65.54-19.13,131-38.43c19.8-5.8,39.6-11.58,59.47-17.12,3-.83,7-1.4,9.43,0,3.06,1.74,4.93,5.55,7.32,8.47-2.87,2-5.48,4.82-8.65,5.73-24.76,7.1-49.64,13.83-74.48,20.67-6.55,1.8-13.09,3.63-19.66,5.35-7.32,1.92-13.06,4.22-15.47,13.3-3.65,13.75-11.31,26.51-14.35,40.34-4.71,21.47-7,43.47-10.22,65.26a12.06,12.06,0,0,0,.42,3.05C773.27,222.58,770.94,225.29,765.69,225.83Zm-223-9.49,2.41,1c17.24-8.43,34.17-17.71,47.5-31.74,7.94-8.35,14-18.6,20.17-28.44a28.12,28.12,0,0,0,3-9.24,24.93,24.93,0,0,0,.08-7.64,79.46,79.46,0,0,0-1.66-10.39c-5.24-18.78-18.86-30.3-35.55-38.62-7.65-3.82-15.49-7.72-24.79-6.63Z"/><path class="cls-1" d="M47.75,230.37c1.19,4.69,2.14,8.45,3.11,12.21,2.24,8.66,5.85,10.23,13.33,6.74,2.26-32.31,4.56-64,6.65-95.78,1-15.68,1.5-31.4,2.56-47.07.39-5.8-2.08-7.77-7.34-7.12q-24,3-48,6.14c-3.24.42-6.63,1.87-9.65,1.3S2.79,103.67,0,102c1.88-2.6,3.3-6.81,5.73-7.51A164.75,164.75,0,0,1,33.2,88.74c12.54-1.39,25.21-1.62,38.69-2.4-.44-2.21-.67-4.19-1.24-6.08-2.16-7.15,2-12.07,9.36-10.73,5.79,1,10.59,4.2,10.59,10.44,0,7.27,3.86,8.71,9.84,9.71a145.76,145.76,0,0,1,63.49,26.92c31.84,23.52,28.18,52.55,7.3,76.91-11.74,13.7-24.71,26.22-40.56,35.4-15.56,9-30.43,19.36-46.49,27.31-8.46,4.19-18.78,5.52-28.39,6.18-6.47.44-13.51-3-14.62-10.7C40.09,244.35,39.66,236.36,47.75,230.37ZM82.91,241c3.19-.54,3.94-.5,4.52-.79,21.37-10.62,40.11-25,57.68-40.94A100,100,0,0,0,161.43,180c14.39-22,11.74-39.82-9-55.91A120.83,120.83,0,0,0,123.87,108c-9.79-4-20.56-5.5-32-8.38Z"/><path class="cls-1" d="M274,89.36c-13.51,3.23-26.16,6.8-39,9-4.52.78-10-1-14.27-3.16-1.92-1-3.13-6-2.47-8.6.54-2.13,4.26-4.74,6.72-4.9,40.66-2.57,78.59-17.53,118-25.7,15.16-3.14,30.25-6.59,45.38-9.9.91-.2,2-.81,2.72-.51,2.83,1.19,5.54,2.67,8.29,4-1.6,2.07-2.77,5-4.88,6a92,92,0,0,1-17.65,6.79C352,68.63,327.16,74.26,302.4,80.35c-3.83.94-7.58,2-8.13,8-3.2,34.35-7,68.63-10.53,103-2.14,21-4.1,42-6,63-.61,6.59-3.63,9.32-10,8.53-7.21-.89-10-4.22-9.37-10.27q6.81-60.88,13.42-121.78c1.3-12.12,2-24.3,2.95-36.47C274.78,93,274.32,91.58,274,89.36Z"/><path class="cls-1" d="M437.29,157.21c-5.86-1.52-10.86-1.79-14.62-4.08a20.65,20.65,0,0,1-8.29-10c-.62-1.77,3.24-6.47,6-7.83a255.11,255.11,0,0,1,29.76-12.42c4.43-1.5,9.85-1.3,14.52-.36,2.46.49,4.26,4.24,6.36,6.52-2.11,1.49-4,3.53-6.36,4.36-6.92,2.46-14,4.44-21,6.61l.37,1.74c4.5,1,9.3,1.3,13.41,3.15,3.08,1.39,6.88,4.46,7.39,7.31s-2,7.24-4.58,9.15c-7.49,5.6-15.85,10-23.49,15.42-11.27,8-22.24,16.41-33.26,24.74-1.42,1.07-2.42,2.7-4.4,5,10.07,2.45,18.3-.38,26.37-3.84,3-1.29,5.59-3.66,8.65-4.65,2.19-.71,6-.9,7,.35,1.42,1.82,1.54,5.26,1,7.78a9.55,9.55,0,0,1-3.92,5.66c-14.44,9-29.58,14.65-46.54,7.24-12.89-5.64-15-16.33-4.16-25,13.53-10.82,27.87-20.63,41.85-30.88C431.77,161.43,434.06,159.65,437.29,157.21Z"/><path class="cls-1" d="M192.26,204.62c2.2-30.18,3.46-60.39,5-90.61.45-8.67-2.23-17.49-3.15-26.27-.27-2.54-.29-6.23,1.2-7.53,1.67-1.45,5.52-1.7,7.83-.86,5.48,2,10.22,5.76,10.36,12.11.35,15.41,1.47,31-.14,46.23-3.68,34.83-6.54,69.58-2.88,104.57.44,4.22-.8,7.42-5.76,7.91-6.6.66-12.32-2.84-12.41-8.25-.21-12.44-.07-24.88-.07-37.31Z"/><path class="cls-1" d="M193.74,56.06c-19.81.87-32.77-7.88-35.82-22.85-1.45-7.13-.1-13.58,5.08-18.86A46.73,46.73,0,0,1,193.47,0c2.78-.22,6,1,8.47,2.42,1.76,1,2.66,3.5,3.94,5.34-1.92,1-3.87,1.89-5.74,3-7.59,4.33-15.57,8.14-22.56,13.29A9.46,9.46,0,0,0,176,37.45c2.21,2.85,7.08,5.79,10.26,5.31a112.06,112.06,0,0,0,24.67-7c2.55-1,4.07-5.32,5.47-8.39,2.35-5.14,5.25-5.93,9.45-2.1,7.66,7,6.93,15.72-2,21.41C214.11,52.87,203.45,56.09,193.74,56.06Z"/><path class="cls-1" d="M434.15,242.76c-.31,14.08-5.67,21.59-15.48,22.5-4.83.45-7.48-1-6.74-6.77,1-8,1.37-16,1.93-24.07.37-5.28,6.13-8.08,11.64-5.3C431.43,232.12,434.63,237,434.15,242.76Z"/><path class="cls-1" d="M431.44,69c8.55.06,14.34,8.84,11.8,15.36-1.95,5-3.83,10-5.39,15.14-1.49,4.86-5.18,7.54-9.38,6.17-2.59-.84-5.68-5.44-5.57-8.23a131.05,131.05,0,0,1,3.61-24C427,71.34,430.34,69.93,431.44,69Z"/></g></g></svg>